<?xml version="1.0" encoding="UTF-8" standalone="no"?>
<!DOCTYPE svg PUBLIC "-//W3C//DTD SVG 1.1//EN" "http://www.w3.org/Graphics/SVG/1.1/DTD/svg11.dtd">
<svg width="100%" height="100%" viewBox="0 0 1200 1200" version="1.1" xmlns="http://www.w3.org/2000/svg" xmlns:xlink="http://www.w3.org/1999/xlink" xml:space="preserve" xmlns:serif="http://www.serif.com/" style="fill-rule:evenodd;clip-rule:evenodd;stroke-linejoin:round;stroke-miterlimit:2;">
    <g transform="matrix(1,0,0,1,-2523,0)">
        <g id="Artboard4" transform="matrix(1,0,0,1,1273,-1250)">
            <rect x="1250" y="1250" width="1200" height="1200" style="fill:none;"/>
            <g transform="matrix(1.691207,0,0,1.691207,826.478453,996.783314)">
                <g transform="matrix(1,0,0,1,168.651905,181)">
                    <g transform="matrix(277.813224,0,0,277.813224,791.326086,419)">
                    </g>
                    <text x="195px" y="419px" style="font-family:'Array-SemiboldWide', 'Array';font-weight:500;font-stretch:expanded;font-size:277.813px;">D<tspan x="384.469px 573.937px 652.419px " y="419px 419px 419px ">oit</tspan></text>
                </g>
                <g transform="matrix(1,0,0,1,27,17.798156)">
                    <g transform="matrix(0.079456,0,0,0.079456,221.28031,484.876008)">
                        <circle cx="587" cy="247" r="112" style="fill:rgb(255,0,0);"/>
                    </g>
                    <g transform="matrix(0.079456,0,0,0.079456,221.28031,467.077852)">
                        <circle cx="587" cy="247" r="112" style="fill:rgb(255,0,0);"/>
                    </g>
                    <g transform="matrix(0.079456,0,0,0.079456,221.28031,502.674164)">
                        <circle cx="587" cy="247" r="112" style="fill:rgb(255,0,0);"/>
                    </g>
                    <g transform="matrix(0.079456,0,0,0.079456,239.078465,484.876008)">
                        <circle cx="587" cy="247" r="112" style="fill:rgb(255,0,0);"/>
                    </g>
                    <g transform="matrix(0.079456,0,0,0.079456,203.482154,484.876008)">
                        <circle cx="587" cy="247" r="112" style="fill:rgb(255,0,0);"/>
                    </g>
                    <g transform="matrix(0.079456,0,0,0.079456,239.078465,467.077852)">
                        <circle cx="587" cy="247" r="112" style="fill:rgb(255,0,0);"/>
                    </g>
                    <g transform="matrix(0.079456,0,0,0.079456,203.482154,467.077852)">
                        <circle cx="587" cy="247" r="112" style="fill:rgb(255,0,0);"/>
                    </g>
                    <g transform="matrix(0.079456,0,0,0.079456,203.482154,502.674164)">
                        <circle cx="587" cy="247" r="112" style="fill:rgb(255,0,0);"/>
                    </g>
                    <g transform="matrix(0.079456,0,0,0.079456,239.078465,502.674164)">
                        <circle cx="587" cy="247" r="112" style="fill:rgb(255,0,0);"/>
                    </g>
                    <g transform="matrix(0.079456,0,0,0.079456,221.28031,520.472319)">
                        <circle cx="587" cy="247" r="112" style="fill:rgb(255,0,0);"/>
                    </g>
                    <g transform="matrix(0.079456,0,0,0.079456,256.876621,484.876008)">
                        <circle cx="587" cy="247" r="112" style="fill:rgb(255,0,0);"/>
                    </g>
                    <g transform="matrix(0.079456,0,0,0.079456,185.683998,484.876008)">
                        <circle cx="587" cy="247" r="112" style="fill:rgb(255,0,0);"/>
                    </g>
                    <g transform="matrix(0.079456,0,0,0.079456,221.28031,449.279696)">
                        <circle cx="587" cy="247" r="112" style="fill:rgb(255,0,0);"/>
                    </g>
                </g>
            </g>
        </g>
    </g>
</svg>
